inDegrees=no
num_controls=7
num_derivatives=13
num_iterations=127
num_multipliers=7
num_parameters=0
num_slacks=7
num_states=26
objective=6.027024
objective_accelerations=1.014215
objective_balance=0.088640
objective_effort=0.677300
objective_height=4.166604
objective_ligament=0.080265
solver_duration=1258.326535
status=Solve_Succeeded
success=true
DataType=double
version=3
OpenSimVersion=4.4-2022-07-23-0e9fedc
endheader
time	/jointset/ground_pelvis/pelvis_tilt/value	/jointset/ground_pelvis/pelvis_tx/value	/jointset/ground_pelvis/pelvis_ty/value	/jointset/hip_l/hip_flexion_l/value	/jointset/hip_l/hip_adduction_l/value	/jointset/hip_l/hip_rotation_l/value	/jointset/back/lumbar_extension/value	/jointset/patellofemoral_l/patellar_flexion_l/value	/jointset/knee_l/knee_flexion_l/value	/jointset/knee_l/knee_adduction_l/value	/jointset/knee_l/knee_rotation_l/value	/jointset/ankle_l/ankle_angle_l/value	/jointset/subtalar_l/subtalar_angle_l/value	/jointset/ground_pelvis/pelvis_tilt/speed	/jointset/ground_pelvis/pelvis_tx/speed	/jointset/ground_pelvis/pelvis_ty/speed	/jointset/hip_l/hip_flexion_l/speed	/jointset/hip_l/hip_adduction_l/speed	/jointset/hip_l/hip_rotation_l/speed	/jointset/back/lumbar_extension/speed	/jointset/patellofemoral_l/patellar_flexion_l/speed	/jointset/knee_l/knee_flexion_l/speed	/jointset/knee_l/knee_adduction_l/speed	/jointset/knee_l/knee_rotation_l/speed	/jointset/ankle_l/ankle_angle_l/speed	/jointset/subtalar_l/subtalar_angle_l/speed	/forceset/tau_hip_flexion_l	/forceset/tau_hip_adduction_l	/forceset/tau_hip_rotation_l	/forceset/tau_knee_flexion_l	/forceset/tau_ankle_angle_l	/forceset/tau_subtalar_angle_l	/forceset/tau_lumbar_extension	lambda_cid13_p0	lambda_cid13_p1	lambda_cid13_p2	lambda_cid13_p3	lambda_cid13_p4	lambda_cid13_p5	lambda_cid14_p0	/jointset/ground_pelvis/pelvis_tilt/accel	/jointset/ground_pelvis/pelvis_tx/accel	/jointset/ground_pelvis/pelvis_ty/accel	/jointset/hip_l/hip_flexion_l/accel	/jointset/hip_l/hip_adduction_l/accel	/jointset/hip_l/hip_rotation_l/accel	/jointset/back/lumbar_extension/accel	/jointset/patellofemoral_l/patellar_flexion_l/accel	/jointset/knee_l/knee_flexion_l/accel	/jointset/knee_l/knee_adduction_l/accel	/jointset/knee_l/knee_rotation_l/accel	/jointset/ankle_l/ankle_angle_l/accel	/jointset/subtalar_l/subtalar_angle_l/accel	gamma_cid13_p0	gamma_cid13_p1	gamma_cid13_p2	gamma_cid13_p3	gamma_cid13_p4	gamma_cid13_p5	gamma_cid14_p0
0.5	-0.1670346067985012	-0.07182053076110895	0.6925189215575218	1.354416299730685	-0.3113433790920079	-0.02974232440597034	-0.8345280421231572	1.315934436612499	1.315934436612503	0.02546412914301482	-0.1745300152870147	0.227186785401147	0.06573016119812007	-0.1960047311862684	-0.1302032396788597	-0.8760545954689128	2.708750688778805	0.006926076697502341	0.5718067124960056	-0.7904148641640677	2.811205402257306	2.811205402257116	0.4932634049872032	-9.479778704221534e-05	0.4855153000211868	0.2085297155789942	-0.3447976949772099	0.01056968140129733	-0.01737547452394266	-0.3036139885351577	0.09908179926146354	0.04064546347811637	0.3835689440038001	-11.43750219803407	-13.31862714617663	-0.9936009581950527	-21.65918308759315	-703.0408425661149	-61.07617159683579	-0.04284276883657554	1.446163635720119	1.287005477817644	-0.431521368411911	-2.132786178917533	0.1878993170840252	-0.794399530927016	2.669029407504387	-2.1999680596206	-2.199968059620572	-0.2216676202895994	0.05226949769258417	-1.688163952581587	-0.315655887274913	-2.236849312199552e-07	-1.826306535837668e-06	3.699915789052358e-07	-4.084796169047957e-07	-3.344866309680359e-07	9.942332849943223e-08	-3.554240617594465e-07
0.51	-0.16892187950792	-0.07305831203923359	0.6837389040589468	1.381394081280994	-0.3112658224191163	-0.02406481963508959	-0.8422980673975317	1.343932686357712	1.343932686357703	0.0303843981357368	-0.1745304165867058	0.2319559156269315	0.06779743884072138	-0.1813914213110099	-0.1173643277570476	-0.8797270774954679	2.686466535773912	0.008574113249655147	0.5636647913753076	-0.7635453567536514	2.788066188117635	2.788066188117595	0.4907516887607833	-2.225433356618805e-06	0.4681949930923145	0.2048430376824968	-0.3536987280573897	0.009626837800106255	-0.01807548263840849	-0.3110741780987964	0.0988961653726976	0.03983926417749858	0.3925506572155522	-12.11489418475935	-12.65847818294958	-1.317483127789772	-21.48229668817435	-712.4219109902772	-60.60913855993798	-0.04273359003336588	1.477633500136145	1.280559866114497	-0.3018937041155035	-2.327130788091928	0.1516171500357517	-0.8288151227810352	2.702636501882426	-2.427589609522768	-2.42758960950041	-0.2720217719196253	-0.01468245390155152	-1.771392957948161	-0.4074050376390369	-1.410887495870249e-07	-1.43735478210564e-06	2.865945135140891e-07	-4.083733702564907e-07	-2.63210989324169e-07	1.114967974702605e-07	-2.841423642321289e-07
0.52	-0.1706612753512647	-0.07416805903479017	0.6749288053232386	1.408138841115872	-0.3111721131155584	-0.0184696794194427	-0.8497980525789901	1.371688205657853	1.371688205657838	0.03527833033666029	-0.1745303788744766	0.2365483570044439	0.06982540344499698	-0.1664293579674009	-0.1045963831652449	-0.8820708428955452	2.662146345696359	0.01015660283201924	0.5553338014490083	-0.7364068455803172	2.762659313242666	2.762659313242774	0.4879960466102934	-6.995403995435558e-06	0.4501775303671132	0.2006671079139223	-0.3625997611375845	0.008683994198879354	-0.01877549075261211	-0.3185343676624228	0.09871053148392479	0.03903306487682889	0.4015323704272906	-12.8067035187021	-11.99320639615832	-1.645150256349213	-21.3321301083552	-722.009612915615	-60.19066511720369	-0.04256080653767118	1.515914329390709	1.272812011815533	-0.1657780431163946	-2.539993593449711	0.174789923126303	-0.8322132920473058	2.722830160088196	-2.653500206680329	-2.653500206680317	-0.2704528051035777	0.03280103282752478	-1.827595111847815	-0.4135062616905714	-7.809157852680149e-08	-1.35206306531705e-06	-4.87581681442254e-09	-4.514459389293602e-07	-2.28312930224878e-07	-7.158196435255929e-08	-2.290538880585868e-07
0.53	-0.1722495816381909	-0.07515057189952842	0.6661019090745796	1.43463054386267	-0.3110626490074698	-0.01295885146530091	-0.8570254782961706	1.399178621742212	1.39917862174221	0.04014399341508001	-0.1745304548746527	0.2409574973843474	0.07180959398072168	-0.1511968999362927	-0.09192604500122349	-0.8830845177652992	2.635869150175832	0.0117303311890447	0.5468230317305021	-0.7090574000995982	2.73506705899912	2.735067058999108	0.4850823871055199	-8.329579127649923e-06	0.4315658376444331	0.1961050864261162	-0.370745072722006	0.007665079974683169	-0.01949730945653617	-0.3259950511977321	0.09879885804120909	0.03801543133939514	0.4098252746062969	-13.39726376084157	-11.23195076636625	-2.01311825606136	-21.16534539891181	-731.1271386786641	-59.57643375803711	-0.04231083013132909	1.532131688799217	1.261071621277614	-0.03562084495144238	-2.720365985212419	0.1478705166676658	-0.8620313646977515	2.744136405955584	-2.865574703920235	-2.865574703938124	-0.310178266039737	-0.01666613213530053	-1.89071474424494	-0.4872110081307038	-2.219015472548647e-08	-1.289521402019623e-06	-2.802261554801317e-07	-4.913163869145661e-07	-2.015916571033127e-07	-2.72022994856729e-07	-1.782118714232221e-07
